<?xml version="1.0" encoding="UTF-8" standalone="no"?>
<svg
   xmlns:osb="http://www.openswatchbook.org/uri/2009/osb"
   xmlns:dc="http://purl.org/dc/elements/1.1/"
   xmlns:cc="http://creativecommons.org/ns#"
   xmlns:rdf="http://www.w3.org/1999/02/22-rdf-syntax-ns#"
   xmlns:svg="http://www.w3.org/2000/svg"
   xmlns="http://www.w3.org/2000/svg"
   xmlns:xlink="http://www.w3.org/1999/xlink"
   xmlns:sodipodi="http://sodipodi.sourceforge.net/DTD/sodipodi-0.dtd"
   xmlns:inkscape="http://www.inkscape.org/namespaces/inkscape"
   sodipodi:docname="logo_tiny.svg"
   inkscape:version="1.0 (4035a4fb49, 2020-05-01)"
   id="svg8"
   version="1.1"
   viewBox="0 0 132.29167 132.29167"
   height="500"
   width="500"
   inkscape:export-filename="C:\Users\dylan\Desktop\16.png"
   inkscape:export-xdpi="4.3403196"
   inkscape:export-ydpi="4.3403196">
  <defs
     id="defs2">
    <linearGradient
       inkscape:collect="always"
       id="linearGradient861">
      <stop
         style="stop-color:#d400dc;stop-opacity:1"
         offset="0"
         id="stop857" />
      <stop
         style="stop-color:#0096cc;stop-opacity:1"
         offset="1"
         id="stop859" />
    </linearGradient>
    <linearGradient
       osb:paint="gradient"
       id="linearGradient858">
      <stop
         id="stop854"
         offset="0"
         style="stop-color:#000000;stop-opacity:1;" />
      <stop
         id="stop856"
         offset="1"
         style="stop-color:#000000;stop-opacity:0;" />
    </linearGradient>
    <linearGradient
       inkscape:collect="always"
       xlink:href="#linearGradient861"
       id="linearGradient863"
       x1="32.275352"
       y1="39.802109"
       x2="94.735756"
       y2="93.0942"
       gradientUnits="userSpaceOnUse" />
  </defs>
  <sodipodi:namedview
     inkscape:snap-nodes="true"
     inkscape:window-maximized="1"
     inkscape:window-y="-8"
     inkscape:window-x="1912"
     inkscape:window-height="1027"
     inkscape:window-width="1920"
     inkscape:snap-grids="true"
     inkscape:pagecheckerboard="true"
     width="49px"
     units="px"
     showgrid="false"
     inkscape:document-rotation="0"
     inkscape:current-layer="layer2"
     inkscape:document-units="mm"
     inkscape:cy="264.73149"
     inkscape:cx="111.09801"
     inkscape:zoom="1.4"
     inkscape:pageshadow="2"
     inkscape:pageopacity="0.0"
     borderopacity="1.0"
     bordercolor="#666666"
     pagecolor="#ffffff"
     id="base" />
  <metadata
     id="metadata5">
    <rdf:RDF>
      <cc:Work
         rdf:about="">
        <dc:format>image/svg+xml</dc:format>
        <dc:type
           rdf:resource="http://purl.org/dc/dcmitype/StillImage" />
        <dc:title />
      </cc:Work>
    </rdf:RDF>
  </metadata>
  <g
     style="display:inline"
     inkscape:label="Base Icon"
     id="layer2"
     inkscape:groupmode="layer"
     sodipodi:insensitive="true">
    <path
       d="m 26.970703,36.380859 c 0.220518,12.686775 -0.697723,25.466054 1.617077,38.001539 1.746192,7.684464 5.429177,15.12761 10.473885,21.30231 6.009237,7.384152 14.127549,13.271242 23.295757,16.164902 1.97705,0.64843 4.144726,1.15269 6.181891,0.45666 2.737608,-0.7802 5.380862,-1.88268 7.952875,-3.09533 11.816589,-5.83014 21.131103,-16.480874 25.541992,-28.928782 2.31289,-6.387995 3.19208,-13.218111 3.32026,-19.954991 0.15717,-7.728953 -0.12075,-15.458729 -0.0515,-23.188495 0.25491,-0.781242 -0.40967,-0.964604 -1.00551,-1.192665 C 91.58763,30.299942 78.8778,24.653877 66.167969,19.007812 53.102214,24.798828 40.036458,30.589844 26.970703,36.380859 Z"
       inkscape:label="Outline"
       style="fill:#ffffff;fill-opacity:1;stroke-width:3.76338"
       id="path865" />
    <path
       sodipodi:insensitive="true"
       id="path846"
       d="m 58.619153,84.962748 -15.05364,-15.0535 5.30648,-5.30634 9.74716,9.70946 24.80066,-24.80065 5.30634,5.34389 m -22.58032,-30.107 -33.87048,15.0535 v 22.58032 c 0,20.88683 14.4514,40.418842 33.87048,45.160632 19.41907,-4.74179 33.870477,-24.273802 33.870477,-45.160632 v -22.58032 z"
       style="fill:url(#linearGradient863);fill-opacity:1;stroke-width:3.76338"
       inkscape:label="Logo" />
  </g>
</svg>
